#!OML:ASF E:\Steps\Project 1\Capture day 1\Session 2\Subject.ASF
:FULLY-SPECIFIED
:DEGREES
398
root -0.234722 15.307 17.1503 -166.351 -6.33455 188.108
lowerback -21.5623 -4.53984 -6.67356
upperback 1.14366 -4.6609 1.77944
thorax 14.1947 -2.76705 4.25753
lowerneck 0.0129171 -6.12558 -0.139016
upperneck 20.2215 -7.79276 5.27702
head 6.34748 -2.77642 1.34502
rclavicle -4.57205e-015 -2.70347e-014
rhumerus -53.6975 -17.2059 -68.0715
rradius 32.0524
rwrist -0.148192
rhand -10.6277 -54.3791
rfingers 7.12502
rthumb -164.621 -263.787
lclavicle -4.57205e-015 -2.70347e-014
lhumerus -37.3783 0.398001 75.0081
lradius 25.6988
lwrist -1.27353
lhand -21.5363 -12.2274
lfingers 7.12502
lthumb 4.85656 17.6969
rfemur -67.0664 -9.89396 14.3895
rtibia 40.245
rfoot -3.27017 -0.638065
rtoes -29.2349
lfemur -4.02692 -15.4304 -11.629
ltibia 28.6207
lfoot -30.0649 3.07281
ltoes -14.375
399
root -0.195935 15.2819 17.076 -166.176 -6.29053 188.137
lowerback -21.4726 -4.47817 -6.22634
upperback 1.32377 -4.69179 1.81358
thorax 14.3237 -2.75144 4.03149
lowerneck -0.531917 -5.98586 -0.0229847
upperneck 20.4073 -7.63533 5.1716
head 6.48742 -2.69363 1.28505
rclavicle -1.33186e-014 -1.59028e-014
rhumerus -53.5438 -17.5288 -67.9216
rradius 31.7397
rwrist 0.245641
rhand -11.1422 -54.283
rfingers 7.12502
rthumb -165.116 -263.728
lclavicle -1.33186e-014 -1.59028e-014
lhumerus -37.0378 0.188041 75.1039
lradius 25.9541
lwrist -1.13895
lhand -21.7008 -12.4807
lfingers 7.12502
lthumb 4.69765 17.4472
rfemur -67.3561 -9.84425 14.6935
rtibia 40.7164
rfoot -1.53487 0.134266
rtoes -26.9393
lfemur -3.8866 -15.2443 -11.4225
ltibia 28.6578
lfoot -30.425 2.98899
ltoes -15.1464
400
root -0.142804 15.2606 16.9867 -165.961 -6.0799 187.821
lowerback -21.8536 -4.44527 -6.24697
upperback 1.71261 -4.57692 1.68875
thorax 14.9862 -2.70704 3.91404
lowerneck -1.21376 -5.91898 0.105569
upperneck 20.5309 -7.63409 5.29156
head 6.64558 -2.67204 1.28162
rclavicle -1.07344e-014 -9.54166e-015
rhumerus -53.1862 -18.1169 -67.9717
rradius 31.3721
rwrist 0.603438
rhand -11.2788 -53.5051
rfingers 7.12502
rthumb -165.248 -262.96
lclavicle -1.07344e-014 -9.54166e-015
lhumerus -36.2517 -0.0397139 75.0717
lradius 25.9304
lwrist -1.19002
lhand -22.1297 -13.1962
lfingers 7.12502
lthumb 4.28354 16.7405
rfemur -67.7686 -9.66697 14.5577
rtibia 41.252
rfoot 0.112433 0.518031
rtoes -22.4095
lfemur -3.67484 -14.9909 -11.5377
ltibia 28.5044
lfoot -30.5928 2.95375
ltoes -16.6826
401
root -0.108067 15.2346 16.9075 -165.756 -5.96911 187.465
lowerback -21.4756 -4.45011 -6.29421
upperback 1.63683 -4.60698 1.75998
thorax 14.6896 -2.72269 4.03191
lowerneck -0.954079 -5.82023 -0.168336
upperneck 20.3218 -7.48674 5.41653
head 6.54334 -2.62735 1.38273
rclavicle 1.41137e-014 -3.18055e-015
rhumerus -53.5309 -17.9743 -67.6106
rradius 31.2555
rwrist 0.524509
rhand -11.3339 -52.5562
rfingers 7.12502
rthumb -165.301 -262.015
lclavicle 1.41137e-014 -3.18055e-015
lhumerus -36.3473 -0.109616 75.3449
lradius 26.1386
lwrist -1.13162
lhand -22.2935 -13.3202
lfingers 7.12502
lthumb 4.12533 16.6196
rfemur -68.3305 -10.1508 14.855
rtibia 41.8059
rfoot 1.35377 1.01824
rtoes -21.5387
lfemur -3.42803 -14.9604 -11.8657
ltibia 28.3362
lfoot -30.5057 2.94376
ltoes -17.5272
402
root -0.0687301 15.2097 16.8297 -165.423 -5.64505 186.955
lowerback -21.3009 -4.43899 -6.47797
upperback 1.63385 -4.55221 1.74809
thorax 14.5922 -2.70979 4.15077
lowerneck 0.11769 -5.59986 -0.573294
upperneck 19.1734 -7.20426 5.93048
head 6.0154 -2.56023 1.65646
rclavicle -1.19271e-015 2.54444e-014
rhumerus -53.6607 -18.1093 -67.231
rradius 31.0455
rwrist 0.719314
rhand -11.2196 -51.8649
rfingers 7.12502
rthumb -165.191 -261.316
lclavicle -1.19271e-015 2.54444e-014
lhumerus -36.1967 -0.072524 75.4752
lradius 26.3672
lwrist -0.905321
lhand -22.1519 -13.1238
lfingers 7.12502
lthumb 4.26205 16.8133
rfemur -69.1859 -9.95632 14.5594
rtibia 42.9693
rfoot 1.40423 0.591708
rtoes -26.0658
lfemur -3.30315 -14.8352 -12.3745
ltibia 28.2082
lfoot -30.3227 3.01331
ltoes -17.46
403
root -0.0342728 15.1871 16.7607 -165.122 -5.35002 186.656
lowerback -20.8144 -4.33474 -6.34282
upperback 1.56065 -4.47755 1.72611
thorax 14.1959 -2.65527 4.09896
lowerneck 0.60943 -5.51354 -0.585265
upperneck 18.51 -7.09555 6.05571
head 5.72259 -2.54635 1.71544
rclavicle -3.61788e-014 -9.54166e-015
rhumerus -53.8134 -18.4166 -66.8503
rradius 30.7123
rwrist 1.06301
rhand -11.1135 -51.0174
rfingers 7.12502
rthumb -165.089 -260.461
lclavicle -3.61788e-014 -9.54166e-015
lhumerus -36.0878 -0.224612 75.5363
lradius 26.6042
lwrist -0.678248
lhand -21.9067 -13.046
lfingers 7.12502
lthumb 4.49885 16.8862
rfemur -70.184 -9.97196 14.7441
rtibia 44.2984
rfoot 1.39156 0.54648
rtoes -29.8472
lfemur -3.20151 -14.8046 -12.6542
ltibia 28.1379
lfoot -30.208 3.01368
ltoes -16.9304
404
root 0.0337299 15.1683 16.6785 -164.998 -5.00771 186.795
lowerback -20.8923 -4.25526 -6.32189
upperback 1.90312 -4.37851 1.91285
thorax 14.6529 -2.63188 4.32621
lowerneck 0.43442 -5.52845 -0.329259
upperneck 17.9734 -7.1585 5.88917
head 5.57159 -2.61834 1.61137
rclavicle 1.41137e-014 -3.81667e-014
rhumerus -53.3729 -18.8694 -66.7377
rradius 30.3231
rwrist 1.44522
rhand -11.0709 -50.2858
rfingers 7.12502
rthumb -165.048 -259.726
lclavicle 1.41137e-014 -3.81667e-014
lhumerus -35.4869 -0.3433 75.664
lradius 26.8072
lwrist -0.564131
lhand -21.7265 -12.8996
lfingers 7.12502
lthumb 4.67287 17.0288
rfemur -70.9793 -9.44138 15.1879
rtibia 45.4806
rfoot 1.21527 0.599541
rtoes -31.0891
lfemur -2.92302 -14.624 -12.2181
ltibia 28.0451
lfoot -30.1529 2.89779
ltoes -16.4049
405
root 0.0564743 15.1509 16.6182 -164.58 -4.82058 186.199
lowerback -20.7047 -4.2836 -6.31642
upperback 1.99782 -4.40878 1.81555
thorax 14.6505 -2.63957 4.20679
lowerneck 0.451907 -5.49993 -0.243072
upperneck 17.5717 -7.13801 5.79908
head 5.43609 -2.64323 1.56981
rclavicle 2.8625e-014 -2.3059e-014
rhumerus -53.0673 -19.0368 -66.7253
rradius 29.9852
rwrist 1.95988
rhand -10.6037 -50.5259
rfingers 7.12502
rthumb -164.598 -259.932
lclavicle 2.8625e-014 -2.3059e-014
lhumerus -35.1467 -0.534796 75.8365
lradius 27.039
lwrist -0.29808
lhand -21.8827 -12.5702
lfingers 7.12502
lthumb 4.52206 17.3616
rfemur -72.2564 -9.92062 15.2107
rtibia 47.0482
rfoot 0.819052 1.52668
rtoes -30.1288
lfemur -2.98948 -14.6786 -12.8852
ltibia 28.2005
lfoot -30.0848 3.1424
ltoes -18.7536
406
root 0.0792735 15.1376 16.5576 -164.17 -4.48589 185.526
lowerback -20.4697 -4.29737 -6.40789
upperback 2.12011 -4.39664 1.71587
thorax 14.6556 -2.63652 4.1564
lowerneck 0.100886 -5.41998 -0.302779
upperneck 17.5492 -7.05836 5.7242
head 5.48519 -2.62333 1.5497
rclavicle -1.82882e-014 -7.95139e-015
rhumerus -52.6899 -19.3009 -66.5958
rradius 29.6803
rwrist 2.31957
rhand -8.94829 -51.157
rfingers 7.12502
rthumb -163.004 -260.433
lclavicle -1.82882e-014 -7.95139e-015
lhumerus -34.7596 -0.65788 76.0183
lradius 27.2532
lwrist 0.158594
lhand -22.1716 -12.63
lfingers 7.12502
lthumb 4.24307 17.3074
rfemur -73.4924 -10.1817 15.0396
rtibia 48.6457
rfoot 0.271626 2.24205
rtoes -29.3754
lfemur -3.13564 -14.6116 -13.6698
ltibia 28.4481
lfoot -29.9342 3.43054
ltoes -21.5331
407
root 0.119366 15.1268 16.4884 -163.978 -4.20816 185.16
lowerback -20.1199 -4.3339 -6.52642
upperback 2.30697 -4.44164 1.81345
thorax 14.6997 -2.67623 4.33237
lowerneck -0.281474 -5.3517 -0.589636
upperneck 17.5934 -6.99712 5.74442
head 5.57219 -2.61731 1.5947
rclavicle 4.79071e-014 5.56597e-015
rhumerus -52.2412 -19.4556 -66.4117
rradius 29.4442
rwrist 2.46891
rhand -7.14076 -50.9798
rfingers 7.12502
rthumb -161.265 -260.097
lclavicle 4.79071e-014 5.56597e-015
lhumerus -34.4135 -0.502867 76.2248
lradius 27.4406
lwrist 0.478046
lhand -22.4227 -13.053
lfingers 7.12502
lthumb 4.00058 16.8891
rfemur -74.2539 -10.0523 14.9631
rtibia 49.9143
rfoot -0.345277 2.42199
rtoes -29.9322
lfemur -3.03484 -14.5487 -14.0053
ltibia 28.4808
lfoot -29.7506 3.20435
ltoes -21.1313
408
root 0.183559 15.1135 16.4032 -164.015 -3.91583 185.328
lowerback -19.3134 -4.26209 -6.22382
upperback 2.2644 -4.48895 1.94266
thorax 14.1627 -2.67008 4.32924
lowerneck -0.377947 -5.39095 -0.72364
upperneck 17.9714 -7.04107 5.78159
head 5.71464 -2.6211 1.62342
rclavicle -4.75095e-014 1.90833e-014
rhumerus -52.3739 -19.241 -66.49
rradius 29.2496
rwrist 2.68244
rhand -7.40674 -50.7215
rfingers 7.12502
rthumb -161.52 -259.864
lclavicle -4.75095e-014 1.90833e-014
lhumerus -34.6786 -0.715963 76.2126
lradius 27.7345
lwrist 0.78251
lhand -22.6085 -13.2431
lfingers 7.12502
lthumb 3.82113 16.7024
rfemur -74.5623 -9.26507 15.1126
rtibia 50.8507
rfoot -1.02796 2.08971
rtoes -30.3274
lfemur -2.60765 -14.3024 -13.5668
ltibia 28.2938
lfoot -29.5344 2.74772
ltoes -19.3714
409
root 0.213484 15.107 16.3327 -163.688 -3.73202 184.764
lowerback -19.8255 -4.26375 -6.1727
upperback 2.83099 -4.4199 1.71057
thorax 15.1082 -2.64667 4.022
lowerneck -0.238933 -5.08994 -0.249222
upperneck 16.8222 -6.67172 5.54691
head 5.29528 -2.50962 1.49472
rclavicle 2.10712e-014 9.54166e-015
rhumerus -51.4685 -19.9096 -66.8824
rradius 28.9595
rwrist 3.04527
rhand -8.91745 -51.5351
rfingers 7.12502
rthumb -162.974 -260.809
lclavicle 2.10712e-014 9.54166e-015
lhumerus -33.4829 -1.08188 76.1539
lradius 27.739
lwrist 1.17321
lhand -22.719 -13.2982
lfingers 7.12502
lthumb 3.71443 16.6492
rfemur -75.2825 -9.47955 14.9002
rtibia 51.8718
rfoot -1.60815 2.35312
rtoes -30.3134
lfemur -2.56612 -14.3606 -14.2029
ltibia 28.2697
lfoot -29.1868 2.95877
ltoes -19.9769
